<svg width="24" height="24" viewBox="0 0 24 24" fill="none" xmlns="http://www.w3.org/2000/svg">
<g clip-path="url(#clip0_234_56)">
<mask id="mask0_234_56" style="mask-type:luminance" maskUnits="userSpaceOnUse" x="0" y="0" width="24" height="24">
<path d="M24 0H0V24H24V0Z" fill="white"/>
</mask>
<g mask="url(#mask0_234_56)">
<path d="M12 0C5.38125 0 0 5.38125 0 12C0 18.6188 5.38125 24 12 24C18.6188 24 24 18.6188 24 12C24 5.38125 18.6188 0 12 0Z" fill="#FC471E"/>
<path fill-rule="evenodd" clip-rule="evenodd" d="M15.4451 5.9225C15.4342 5.99134 15.4285 6.06197 15.4285 6.13397C15.4285 6.86086 16.0042 7.45017 16.7142 7.45017C17.4243 7.45017 17.9999 6.86086 17.9999 6.13397C17.9999 5.40708 17.4243 4.81778 16.7142 4.81778C16.3978 4.81778 16.1081 4.9348 15.8841 5.12885L12.5452 4.28577L11.3385 9.22726C9.73313 9.33544 8.28936 9.83313 7.2002 10.5845C6.89095 10.274 6.46728 10.0826 5.99993 10.0826C5.05316 10.0826 4.28564 10.8683 4.28564 11.8374C4.28564 12.512 4.65734 13.0976 5.20251 13.3914C5.16312 13.6007 5.14279 13.8143 5.14279 14.0311C5.14279 16.6965 8.2128 18.8572 11.9999 18.8572C15.7871 18.8572 18.8571 16.6965 18.8571 14.0311C18.8571 13.8143 18.8367 13.6007 18.7973 13.3914C19.3425 13.0976 19.7142 12.512 19.7142 11.8374C19.7142 10.8683 18.9467 10.0826 17.9999 10.0826C17.5326 10.0826 17.1089 10.274 16.7997 10.5845C15.6131 9.76593 14.0056 9.24838 12.2268 9.20776L13.1689 5.34986L15.4451 5.9225ZM8.99993 14.4699C9.70999 14.4699 10.2856 13.8806 10.2856 13.1537C10.2856 12.4267 9.70999 11.8374 8.99993 11.8374C8.28987 11.8374 7.71422 12.4267 7.71422 13.1537C7.71422 13.8806 8.28987 14.4699 8.99993 14.4699ZM14.9999 14.4699C15.71 14.4699 16.2856 13.8806 16.2856 13.1537C16.2856 12.4267 15.71 11.8374 14.9999 11.8374C14.2899 11.8374 13.7142 12.4267 13.7142 13.1537C13.7142 13.8806 14.2899 14.4699 14.9999 14.4699ZM9.2376 15.8598C9.04073 15.7254 8.77467 15.7798 8.64336 15.9814C8.51205 16.1831 8.56526 16.4555 8.76216 16.5899C9.6948 17.2263 10.8474 17.5446 11.9999 17.5446C13.1524 17.5446 14.305 17.2263 15.2376 16.5899C15.4346 16.4555 15.4878 16.1831 15.3565 15.9814C15.2252 15.7798 14.9591 15.7254 14.7622 15.8598C13.9735 16.398 12.9867 16.6671 11.9999 16.6671C11.4148 16.6671 10.8295 16.5725 10.2856 16.3832C9.91244 16.2533 9.55862 16.0788 9.2376 15.8598Z" fill="white"/>
</g>
</g>
<defs>
<clipPath id="clip0_234_56">
<rect width="24" height="24" fill="white"/>
</clipPath>
</defs>
</svg>
