<svg width="24" height="24" viewBox="0 0 24 24" fill="none" xmlns="http://www.w3.org/2000/svg">
<g clip-path="url(#clip0_234_90)">
<path d="M20.4 0H3.6C1.61177 0 0 1.61177 0 3.6V20.4C0 22.3882 1.61177 24 3.6 24H20.4C22.3882 24 24 22.3882 24 20.4V3.6C24 1.61177 22.3882 0 20.4 0Z" fill="#161616"/>
<path d="M11.1095 10.0781C10.0014 9.92519 8.87308 10.1147 7.87581 10.6213C6.87854 11.1279 6.06001 11.9273 5.53 12.9123C4.99999 13.8973 4.78384 15.0209 4.91055 16.1322C5.03725 17.2436 5.50075 18.2896 6.23888 19.1301C6.977 19.9705 7.95447 20.5652 9.04017 20.8343C10.1259 21.1034 11.2679 21.0341 12.3131 20.6357C13.3583 20.2372 14.2567 19.5288 14.8878 18.6052C15.5188 17.6817 15.8525 16.5873 15.8438 15.4688V9.46875C17.0466 10.3292 18.49 10.7884 19.9688 10.7812V7.82812C18.8748 7.82812 17.8256 7.39353 17.052 6.61994C16.2784 5.84635 15.8438 4.79714 15.8438 3.70312H12.8438V15.5156C12.8464 16.0513 12.6789 16.574 12.3654 17.0085C12.052 17.443 11.6088 17.7668 11.0997 17.9333C10.5905 18.0999 10.0416 18.1006 9.53201 17.9354C9.0224 17.7702 8.57835 17.4476 8.26377 17.014C7.94918 16.5804 7.78028 16.0581 7.78137 15.5224C7.78246 14.9867 7.95349 14.4651 8.26985 14.0328C8.5862 13.6005 9.03156 13.2796 9.54184 13.1165C10.0521 12.9534 10.601 12.9564 11.1095 13.125V10.0781Z" fill="#FF0055"/>
<path d="M10.2657 9.375C9.15765 9.22207 8.02933 9.4116 7.03206 9.91819C6.03479 10.4248 5.21626 11.2242 4.68625 12.2092C4.15624 13.1942 3.94009 14.3178 4.0668 15.4291C4.1935 16.5405 4.657 17.5865 5.39513 18.427C6.13325 19.2674 7.11072 19.8621 8.19642 20.1312C9.28213 20.4003 10.4242 20.331 11.4694 19.9325C12.5146 19.5341 13.4129 18.8256 14.044 17.9021C14.6751 16.9786 15.0087 15.8842 15.0001 14.7656V8.76562C16.2028 9.62603 17.6463 10.0853 19.1251 10.0781V7.125C18.0311 7.125 16.9819 6.6904 16.2083 5.91682C15.4347 5.14323 15.0001 4.09402 15.0001 3H12.0001V14.8125C12.0026 15.3482 11.8351 15.8709 11.5217 16.3054C11.2083 16.7398 10.7651 17.0636 10.2559 17.2302C9.74674 17.3968 9.19786 17.3975 8.68826 17.2323C8.17865 17.0671 7.7346 16.7445 7.42002 16.3108C7.10543 15.8772 6.93653 15.355 6.93762 14.8193C6.93871 14.2836 7.10974 13.762 7.4261 13.3297C7.74245 12.8973 8.18781 12.5765 8.69809 12.4134C9.20836 12.2503 9.75723 12.2532 10.2657 12.4219V9.375Z" fill="#00EEEE"/>
</g>
<defs>
<clipPath id="clip0_234_90">
<rect width="24" height="24" fill="white"/>
</clipPath>
</defs>
</svg>
