<svg width="24" height="24" viewBox="0 0 24 24" fill="none" xmlns="http://www.w3.org/2000/svg">
<g clip-path="url(#clip0_234_75)">
<path d="M18.8571 0H5.14286C2.30254 0 0 2.30254 0 5.14286V18.8571C0 21.6975 2.30254 24 5.14286 24H18.8571C21.6975 24 24 21.6975 24 18.8571V5.14286C24 2.30254 21.6975 0 18.8571 0Z" fill="url(#paint0_radial_234_75)"/>
<path d="M18.8571 0H5.14286C2.30254 0 0 2.30254 0 5.14286V18.8571C0 21.6975 2.30254 24 5.14286 24H18.8571C21.6975 24 24 21.6975 24 18.8571V5.14286C24 2.30254 21.6975 0 18.8571 0Z" fill="url(#paint1_radial_234_75)"/>
<path d="M18.8571 0H5.14286C2.30254 0 0 2.30254 0 5.14286V18.8571C0 21.6975 2.30254 24 5.14286 24H18.8571C21.6975 24 24 21.6975 24 18.8571V5.14286C24 2.30254 21.6975 0 18.8571 0Z" fill="url(#paint2_radial_234_75)"/>
<path d="M18 7.5C18 8.3284 17.3284 9 16.5 9C15.6716 9 15 8.3284 15 7.5C15 6.67157 15.6716 6 16.5 6C17.3284 6 18 6.67157 18 7.5Z" fill="white"/>
<path fill-rule="evenodd" clip-rule="evenodd" d="M12 16C14.2091 16 16 14.2091 16 12C16 9.79088 14.2091 8 12 8C9.79088 8 8 9.79088 8 12C8 14.2091 9.79088 16 12 16ZM12 14.4C13.3255 14.4 14.4 13.3255 14.4 12C14.4 10.6745 13.3255 9.6 12 9.6C10.6745 9.6 9.6 10.6745 9.6 12C9.6 13.3255 10.6745 14.4 12 14.4Z" fill="white"/>
<path fill-rule="evenodd" clip-rule="evenodd" d="M3 11.64C3 8.61573 3 7.10355 3.58856 5.94845C4.10628 4.93237 4.93237 4.10628 5.94845 3.58856C7.10355 3 8.61573 3 11.64 3H12.36C15.3843 3 16.8964 3 18.0515 3.58856C19.0676 4.10628 19.8937 4.93237 20.4114 5.94845C21 7.10355 21 8.61573 21 11.64V12.36C21 15.3843 21 16.8964 20.4114 18.0515C19.8937 19.0676 19.0676 19.8937 18.0515 20.4114C16.8964 21 15.3843 21 12.36 21H11.64C8.61573 21 7.10355 21 5.94845 20.4114C4.93237 19.8937 4.10628 19.0676 3.58856 18.0515C3 16.8964 3 15.3843 3 12.36V11.64ZM11.64 4.8H12.36C13.9019 4.8 14.9499 4.8014 15.7601 4.86759C16.5493 4.93207 16.9529 5.04893 17.2344 5.19237C17.9117 5.53752 18.4624 6.08825 18.8076 6.7656C18.9511 7.04712 19.068 7.45068 19.1324 8.23989C19.1986 9.05007 19.2 10.0981 19.2 11.64V12.36C19.2 13.9019 19.1986 14.9499 19.1324 15.7601C19.068 16.5493 18.9511 16.9529 18.8076 17.2344C18.4624 17.9117 17.9117 18.4624 17.2344 18.8076C16.9529 18.9511 16.5493 19.068 15.7601 19.1324C14.9499 19.1986 13.9019 19.2 12.36 19.2H11.64C10.0981 19.2 9.05007 19.1986 8.23989 19.1324C7.45068 19.068 7.04712 18.9511 6.7656 18.8076C6.08825 18.4624 5.53752 17.9117 5.19237 17.2344C5.04893 16.9529 4.93207 16.5493 4.86759 15.7601C4.8014 14.9499 4.8 13.9019 4.8 12.36V11.64C4.8 10.0981 4.8014 9.05007 4.86759 8.23989C4.93207 7.45068 5.04893 7.04712 5.19237 6.7656C5.53752 6.08825 6.08825 5.53752 6.7656 5.19237C7.04712 5.04893 7.45068 4.93207 8.23989 4.86759C9.05007 4.8014 10.0981 4.8 11.64 4.8Z" fill="white"/>
</g>
<defs>
<radialGradient id="paint0_radial_234_75" cx="0" cy="0" r="1" gradientUnits="userSpaceOnUse" gradientTransform="translate(8.57143 18) rotate(-55.3758) scale(21.8739)">
<stop stop-color="#B13589"/>
<stop offset="0.79309" stop-color="#C62F94"/>
<stop offset="1" stop-color="#8A3AC8"/>
</radialGradient>
<radialGradient id="paint1_radial_234_75" cx="0" cy="0" r="1" gradientUnits="userSpaceOnUse" gradientTransform="translate(7.71429 24.8571) rotate(-65.1363) scale(19.3665)">
<stop stop-color="#E0E8B7"/>
<stop offset="0.444662" stop-color="#FB8A2E"/>
<stop offset="0.71474" stop-color="#E2425C"/>
<stop offset="1" stop-color="#E2425C" stop-opacity="0"/>
</radialGradient>
<radialGradient id="paint2_radial_234_75" cx="0" cy="0" r="1" gradientUnits="userSpaceOnUse" gradientTransform="translate(-1.28571 0.857143) rotate(-8.1301) scale(33.3351 7.13002)">
<stop offset="0.156701" stop-color="#406ADC"/>
<stop offset="0.467799" stop-color="#6A45BE"/>
<stop offset="1" stop-color="#6A45BE" stop-opacity="0"/>
</radialGradient>
<clipPath id="clip0_234_75">
<rect width="24" height="24" fill="white"/>
</clipPath>
</defs>
</svg>
